<svg xmlns="http://www.w3.org/2000/svg" viewBox="0 0 700 700"><defs><style>.cls-1,.cls-3,.cls-4{fill:none;stroke:#e6e7e8;}.cls-1{stroke-miterlimit:10;}.cls-2{fill:#e6e7e8;}.cls-3,.cls-4{stroke-linecap:round;stroke-linejoin:round;}.cls-4{fill-rule:evenodd;}</style></defs><title>Prancheta 120</title><g id="Camada_2" data-name="Camada 2"><path class="cls-1" d="M39.24,425.62v15.93A11.23,11.23,0,0,1,28,452.79H0"/><path class="cls-1" d="M122.94,428.64H80.77a8,8,0,0,1-8-8h0a8,8,0,0,1,8-8H89a9.36,9.36,0,0,0,9.36-9.36h0A9.36,9.36,0,0,0,89,393.92H65.11"/><path class="cls-1" d="M207.64,430.49H195.26A10.48,10.48,0,0,0,184.78,441v5.38a9.45,9.45,0,0,1-9.45,9.45h0a9.45,9.45,0,0,1-9.45-9.45V399.18a10.39,10.39,0,0,0-10.39-10.39h0a10.39,10.39,0,0,0-10.39,10.39V409"/><path class="cls-1" d="M211.45,525.92V510.16a13.94,13.94,0,0,1,14-14h43.44a10.27,10.27,0,0,0,10.27-10.27h0a10.27,10.27,0,0,0-10.27-10.26H238A12.7,12.7,0,0,1,225.28,463V451.21"/><path class="cls-1" d="M136.8,489v-7.5A17.49,17.49,0,0,1,154.29,464h0a17.48,17.48,0,0,1,17.48,17.49v85.83a19.84,19.84,0,0,0,19.84,19.84h0a19.84,19.84,0,0,0,19.84-19.84"/><path class="cls-1" d="M48.4,481V457.47a9,9,0,0,1,9-9h0a9,9,0,0,1,9,9v48.31a6.48,6.48,0,0,0,6.48,6.48h0a6.48,6.48,0,0,0,6.48-6.48V449.89a15,15,0,0,1,15-15h0a15,15,0,0,1,15,15v91.19a13.69,13.69,0,0,0,13.68,13.68h0a13.68,13.68,0,0,0,13.68-13.68v-5.29"/><path class="cls-1" d="M44.44,636.91H24.17a12.73,12.73,0,0,1-12.73-12.73v-42a11.48,11.48,0,0,1,11.48-11.48h0a11.48,11.48,0,0,1,11.49,11.48v21.26a7,7,0,0,0,7,7h0a7,7,0,0,0,7-7V527.7"/><path class="cls-1" d="M159.51,700h0a9.75,9.75,0,0,0-9.76-9.75H23.69a11.19,11.19,0,0,1-11.19-11.2h0a11.19,11.19,0,0,1,11.19-11.19H125.3a15.47,15.47,0,0,0,15.47-15.48h0a15.47,15.47,0,0,0-15.47-15.47H95.77"/><line class="cls-1" y1="507.54" x2="15.94" y2="507.54"/><line class="cls-1" x1="191.57" y1="690.45" x2="191.57" y2="700"/><path class="cls-1" d="M296.81,595.35a18,18,0,0,1,18,18h0a18,18,0,0,1-18,18H215.94a6.13,6.13,0,0,0-6.12,6.13h0a6.13,6.13,0,0,0,6.12,6.13h48.71A11.46,11.46,0,0,1,276.11,655h0a11.46,11.46,0,0,1-11.46,11.45H221.77"/><path class="cls-1" d="M131.71,590.25a11.37,11.37,0,0,0,11.37-11.37V556.7a5.58,5.58,0,0,1,5.59-5.58h0a5.58,5.58,0,0,1,5.58,5.58v47.37a13.47,13.47,0,0,0,13.48,13.48h66.16a5.22,5.22,0,0,0,5.22-5.22V611a5.22,5.22,0,0,0-5.22-5.22H220.22a5.22,5.22,0,0,1-5.22-5.22h0a5.22,5.22,0,0,1,5.22-5.22h21.89"/><path class="cls-1" d="M68.83,609.12V534.53a6.83,6.83,0,0,1,6.83-6.83h0a6.83,6.83,0,0,1,6.84,6.83v44.35a11.37,11.37,0,0,0,11.37,11.37"/><path class="cls-1" d="M266.3,563.44V517.15a11.7,11.7,0,0,1,11.7-11.7h0a11.69,11.69,0,0,1,11.69,11.7v32.19a9.51,9.51,0,0,0,9.51,9.52h0a9.52,9.52,0,0,0,9.52-9.52V511.76A10.81,10.81,0,0,1,319.53,501h0a10.81,10.81,0,0,1,10.81,10.81V700"/><path class="cls-1" d="M213.21,700h0a9,9,0,0,1,9-8.94h0a9,9,0,0,1,9,8.94h0"/><path class="cls-1" d="M242.81,700v-4.43a17.47,17.47,0,0,1,17.47-17.47h0a17.47,17.47,0,0,1,17.47,17.47V700"/><path class="cls-1" d="M553.44,668.9h49.73A11.08,11.08,0,0,1,614.24,680h0a11.08,11.08,0,0,1-11.07,11.08H425.11c-4,0-7.22,5-7.22,8.94h0"/><path class="cls-1" d="M404.44,640.65H387.16A14.12,14.12,0,0,0,373,654.78h0a14.12,14.12,0,0,0,14.12,14.12H507.44"/><path class="cls-1" d="M400,554.86V597A10.94,10.94,0,0,0,410.92,608h0A10.94,10.94,0,0,0,421.86,597v-24.3a7.65,7.65,0,0,1,7.65-7.66h0a7.66,7.66,0,0,1,7.66,7.66v30.44a12.5,12.5,0,0,0,12.5,12.5h37.81a12.5,12.5,0,0,1,12.5,12.5h0a12.5,12.5,0,0,1-12.5,12.5H447.11"/><path class="cls-1" d="M362.23,573.12V476.43a18.87,18.87,0,0,1,18.87-18.88h0A18.88,18.88,0,0,1,400,476.43v23"/><line class="cls-1" x1="362.23" y1="700" x2="362.23" y2="620.79"/><path class="cls-1" d="M615.11,486.45V510.4a13.8,13.8,0,0,0,13.8,13.8h0a13.8,13.8,0,0,0,13.81-13.8V403.53a12.08,12.08,0,0,1,12.08-12.08h0a12.08,12.08,0,0,1,12.08,12.08v37.81a11.45,11.45,0,0,0,11.45,11.45H700"/><path class="cls-1" d="M548.55,435.45v19.36a18.74,18.74,0,0,0,18.74,18.74h0A18.75,18.75,0,0,0,586,454.81V393a14.53,14.53,0,0,1,14.53-14.53h0A14.54,14.54,0,0,1,615.11,393v41.84"/><path class="cls-1" d="M482.91,432.54a17.92,17.92,0,0,0,16.57,11.07h0a17.93,17.93,0,0,0,17.93-17.93V370.52A15.57,15.57,0,0,1,533,355h0a15.57,15.57,0,0,1,15.57,15.57v13.6"/><path class="cls-1" d="M460.8,492.79V475.13a15.74,15.74,0,0,0-15.74-15.74h-15.7a26.52,26.52,0,0,1-26.52-26.53h0a26.52,26.52,0,0,1,26.52-26.52h20.75"/><path class="cls-1" d="M540.17,578.79V617.1a13.78,13.78,0,0,1-13.78,13.78h0a13.78,13.78,0,0,1-13.78-13.78v-153A10.16,10.16,0,0,0,502.45,454h0a10.16,10.16,0,0,0-10.16,10.16v123.1A15.75,15.75,0,0,1,476.54,603h0a15.74,15.74,0,0,1-15.74-15.74V544.12"/><path class="cls-1" d="M590.85,626.12v9.57a8.76,8.76,0,0,1-8.76,8.76h0a8.76,8.76,0,0,1-8.76-8.76V499.53A16.59,16.59,0,0,0,556.75,483h0a16.58,16.58,0,0,0-16.58,16.58v29.59"/><path class="cls-1" d="M666.88,616.79v62.37a14.29,14.29,0,0,1-14.3,14.29h0a14.3,14.3,0,0,1-14.3-14.29V551.67a8.17,8.17,0,0,0-8.17-8.17h0a8.17,8.17,0,0,0-8.17,8.17V653.42a8,8,0,0,1-8,8h0a8,8,0,0,1-8-8v-138a7.5,7.5,0,0,0-7.5-7.51h0a7.5,7.5,0,0,0-7.5,7.51v83"/><path class="cls-1" d="M700,507.54H684.12a17.24,17.24,0,0,0-17.24,17.24v39.67"/><path class="cls-1" d="M307.72,378v-4.23a13.67,13.67,0,0,0-13.67-13.66h0a13.67,13.67,0,0,0-13.66,13.66v44.93a11.3,11.3,0,0,1-11.3,11.3h0a11.3,11.3,0,0,1-11.31-11.3V373a14.14,14.14,0,0,0-14.14-14.14h0A14.14,14.14,0,0,0,229.5,373V412.2"/><path class="cls-1" d="M345,461.45v15.62a18.65,18.65,0,0,1-18.65,18.65h0a18.65,18.65,0,0,1-18.65-18.65V421.7"/><path class="cls-1" d="M396.87,389v25.81a12.09,12.09,0,0,1-12.1,12.09h0a12.09,12.09,0,0,1-12.09-12.09V349.43a13.83,13.83,0,0,0-13.83-13.83h0A13.83,13.83,0,0,0,345,349.43v72.86"/><path class="cls-1" d="M486.11,327.55H462.78a10,10,0,0,0-10,10h0a10,10,0,0,0,10,10h13.09a7.66,7.66,0,0,1,7.66,7.66h0a7.66,7.66,0,0,1-7.66,7.66H434.69"/><path class="cls-1" d="M564.51,349.37A14.51,14.51,0,0,1,550,334.86V290.34a18.83,18.83,0,0,0-18.82-18.83h0a18.83,18.83,0,0,0-18.83,18.83v2.34"/><path class="cls-1" d="M670.59,349.68V327.81A12.83,12.83,0,0,0,657.76,315h0a12.83,12.83,0,0,0-12.82,12.83v7.05a14.51,14.51,0,0,1-14.51,14.51h-15"/><path class="cls-1" d="M689.66,286.55a13.26,13.26,0,0,1,4.34,9.83V363.1a11.68,11.68,0,0,1-5.2,9.73"/><path class="cls-1" d="M700,248H635.07a17.56,17.56,0,0,0-17.56,17.56h0a17.56,17.56,0,0,0,17.56,17.55"/><path class="cls-1" d="M547.77,221.91h34.58a9.59,9.59,0,0,1,9.59,9.59h0a9.59,9.59,0,0,1-9.59,9.59H564.69a9.76,9.76,0,0,0-9.75,9.75h0a9.76,9.76,0,0,0,9.75,9.76H603a9.43,9.43,0,0,1,9.44,9.44h0a9.44,9.44,0,0,1-9.44,9.44h-5.2a11,11,0,0,0-11,11v29.31"/><path class="cls-1" d="M465.44,279H497.2a10.24,10.24,0,0,0,10.24-10.24h0a10.24,10.24,0,0,0-10.24-10.24H473.08a18.29,18.29,0,0,1-18.29-18.29h0a18.29,18.29,0,0,1,18.29-18.29h32"/><line class="cls-1" x1="381.44" y1="278.97" x2="412.11" y2="278.97"/><path class="cls-1" d="M320.19,325.94h84.37a14,14,0,0,0,14.05-14.05h0a14,14,0,0,0-14.05-14.05H337.05a9.43,9.43,0,0,1-9.43-9.43h0a9.44,9.44,0,0,1,9.43-9.44h10.14"/><path class="cls-1" d="M207.64,335V284.48a8.17,8.17,0,0,1,8.16-8.16h0a8.17,8.17,0,0,1,8.17,8.16V329a7,7,0,0,0,6.95,6.95h0a7,7,0,0,0,7-6.95V311.53a7,7,0,0,1,7-6.95h.94a7,7,0,0,1,7,6.95v12.08a7,7,0,0,0,6.95,7h.64a7,7,0,0,0,7-7V299.43a11.35,11.35,0,0,1,11.35-11.35h0A11.35,11.35,0,0,1,290,299.43V303"/><path class="cls-1" d="M140,303v-11.6a23.45,23.45,0,0,1,23.45-23.45h0a23.45,23.45,0,0,1,23.46,23.45v110a10.38,10.38,0,0,0,10.38,10.38h0a10.37,10.37,0,0,0,10.37-10.38V368.45"/><path class="cls-1" d="M85.44,236.24h42.3a15.2,15.2,0,0,1,15.2,15.2h0a15.19,15.19,0,0,1-15.2,15.2H111.62a13.29,13.29,0,0,0-13.29,13.3V369a20.82,20.82,0,0,0,20.82,20.83h0A20.83,20.83,0,0,0,140,369V356.12"/><path class="cls-1" d="M0,248H7.1a18.16,18.16,0,0,1,18.15,18.15v67.1a17.6,17.6,0,0,0,17.61,17.61h0a17.61,17.61,0,0,0,17.61-17.61V260.45"/><path class="cls-1" d="M665.05,132.88h-5.16a12.44,12.44,0,0,1-12.45-12.44h0A12.44,12.44,0,0,1,659.89,108H700"/><path class="cls-1" d="M700,233.53H668.26a12.93,12.93,0,0,1-12.93-12.93V167.08a7.64,7.64,0,0,1,7.63-7.63h0a7.64,7.64,0,0,1,7.63,7.63v24.47a8,8,0,0,0,8,8h0a8,8,0,0,0,8-8V151.12"/><path class="cls-1" d="M623.62,176.79v49.6A10.56,10.56,0,0,1,613.06,237h0a10.56,10.56,0,0,1-10.56-10.56V178.82a9.78,9.78,0,0,0-9.78-9.78h0a9.78,9.78,0,0,0-9.78,9.78v11.26a10.8,10.8,0,0,1-10.79,10.8H538a10.36,10.36,0,0,0-9,5.28"/><path class="cls-1" d="M700,78.18H653.66a30,30,0,0,0-30,30.05v15.22"/><path class="cls-1" d="M431.45,196H417.87a9.44,9.44,0,0,1-9.43-9.44V157.26a10.16,10.16,0,0,0-10.16-10.16h0a10.16,10.16,0,0,0-10.16,10.16v89.4a12.13,12.13,0,0,0,12.13,12.12h0a12.12,12.12,0,0,0,12.12-12.12V222A11.93,11.93,0,0,1,424.3,210h0A11.93,11.93,0,0,1,436.23,222v29.83"/><path class="cls-1" d="M559.77,149h11.39a9.78,9.78,0,0,1,9.78,9.78v.47a9.78,9.78,0,0,1-9.78,9.78H485.21a5.77,5.77,0,0,0-5.77,5.77h0a5.77,5.77,0,0,0,5.77,5.77h23.07a7.71,7.71,0,0,1,7.7,7.71h0a7.7,7.7,0,0,1-7.7,7.7H472.77"/><path class="cls-1" d="M503.16,95.2V102a11.41,11.41,0,0,0,11.41,11.41h85.11a6.77,6.77,0,0,1,6.77,6.77h0a6.77,6.77,0,0,1-6.77,6.77H478.22a11,11,0,0,0-11,11h0a11,11,0,0,0,11,11h41.55"/><path class="cls-1" d="M617.11,25.24H549.83A13.85,13.85,0,0,0,536,39.09h0a13.84,13.84,0,0,0,13.84,13.84H639a10,10,0,0,1,10,10h0a10,10,0,0,1-10,10H531.19"/><line class="cls-1" x1="700" y1="25.24" x2="667.11" y2="25.24"/><line class="cls-1" x1="417.89" y1="31.76" x2="417.89"/><path class="cls-1" d="M502.24,44V37.34A24.22,24.22,0,0,0,478,13.11h0a24.23,24.23,0,0,0-24.23,24.23v95.28a18,18,0,0,1-18,17.95h0a18,18,0,0,1-17.95-17.95V84.45"/><path class="cls-1" d="M330.34,0V23.14a16,16,0,0,0,15.94,16h0a16,16,0,0,0,16-16V0"/><path class="cls-1" d="M92.13,135.29v-3a15.86,15.86,0,0,0-15.86-15.86h0a15.86,15.86,0,0,0-15.86,15.86v75.68"/><path class="cls-1" d="M153.44,164.7V99a15.05,15.05,0,0,0-15-15h0a15.05,15.05,0,0,0-15.05,15v84.94a15.61,15.61,0,0,1-15.61,15.62h0a15.61,15.61,0,0,1-15.61-15.62v-5.65"/><path class="cls-1" d="M228.25,259.49H171.12a17.68,17.68,0,0,1-17.68-17.68h0a17.67,17.67,0,0,1,17.68-17.67h31.15a17.68,17.68,0,0,0,17.67-17.68v-.8A17.67,17.67,0,0,0,202.27,188H177.19"/><path class="cls-1" d="M336.69,206.06H253.22a10.42,10.42,0,0,0-10.41,10.42h0a10.41,10.41,0,0,0,10.41,10.41h99.92a16.3,16.3,0,0,1,16.3,16.3h0a16.3,16.3,0,0,1-16.3,16.3H282.19"/><path class="cls-1" d="M300.94,167.47h-67.3a9.7,9.7,0,0,0-9.7,9.7h0a9.7,9.7,0,0,0,9.7,9.7h136.7a9.6,9.6,0,0,1,9.6,9.6h0a9.59,9.59,0,0,1-9.6,9.59"/><path class="cls-1" d="M305.5,53.5h59.05a18.39,18.39,0,0,1,18.39,18.39v40.77A14.31,14.31,0,0,1,368.63,127h0a14.31,14.31,0,0,1-14.32-14.31v-24a12.85,12.85,0,0,0-12.85-12.85h0a12.85,12.85,0,0,0-12.85,12.85V128.2"/><line class="cls-1" x1="32.61" y1="233.53" y2="233.53"/><line class="cls-1" x1="22.11" y1="78.18" y2="78.18"/><path class="cls-1" d="M0,108H7.37a10.06,10.06,0,0,1,10.07,10.06v68.14A12.76,12.76,0,0,0,30.2,199h0A12.75,12.75,0,0,0,43,186.19V106.12"/><path class="cls-1" d="M35.94,25.24H97.2a28.63,28.63,0,0,1,28.63,28.63h0A28.63,28.63,0,0,1,97.2,82.5h-23"/><line class="cls-1" x1="0.13" y1="25.24" x2="2.94" y2="25.24"/><line class="cls-1" x1="277.75" y1="26.45" x2="277.75"/><path class="cls-1" d="M270.38,144.15h24.76a7.62,7.62,0,0,0,7.61-7.62h0a7.61,7.61,0,0,0-7.61-7.61h-7.31a10.08,10.08,0,0,1-10.08-10.08V78.45"/><path class="cls-1" d="M159.51,75V91.21a15.36,15.36,0,0,0,15.36,15.36h41.91a9.92,9.92,0,0,1,9.91,9.92h0a9.91,9.91,0,0,1-9.91,9.91h-23a8.87,8.87,0,0,0-8.87,8.87h0a8.88,8.88,0,0,0,8.87,8.88h24.88"/><line class="cls-1" x1="159.51" x2="159.51" y2="22.7"/><path class="cls-1" d="M191.57,0V73.93a10.82,10.82,0,0,0,10.82,10.82h0a10.82,10.82,0,0,0,10.82-10.82V0"/><path class="cls-1" d="M226.69,0V94.37a8.06,8.06,0,0,0,8.06,8.06h0a8.06,8.06,0,0,0,8.06-8.06V0"/></g><g id="Camada_4" data-name="Camada 4"><circle class="cls-2" cx="11.44" cy="609.95" r="2.67"/><circle class="cls-2" cx="48.4" cy="555.5" r="2.67"/><circle class="cls-2" cx="69.44" cy="565.05" r="2.67"/><circle class="cls-2" cx="107.11" cy="637.31" r="2.67"/><circle class="cls-2" cx="143.08" cy="570.39" r="2.67"/><circle class="cls-2" cx="79.54" cy="488.34" r="2.67"/><circle class="cls-2" cx="109.54" cy="497.94" r="2.67"/><circle class="cls-2" cx="171.98" cy="524.72" r="2.67"/><circle class="cls-2" cx="187" cy="616.97" r="2.67"/><circle class="cls-2" cx="257.12" cy="631.28" r="2.67"/><circle class="cls-2" cx="242.87" cy="667.09" r="2.67"/><circle class="cls-2" cx="262.22" cy="678.46" r="2.67"/><circle class="cls-2" cx="99.16" cy="428.27" r="2.67"/><circle class="cls-2" cx="76.41" cy="393.92" r="2.67"/><circle class="cls-2" cx="60.47" cy="301.12" r="2.67"/><circle class="cls-2" cx="9.8" cy="234.53" r="2.67"/><circle class="cls-2" cx="102.92" cy="236.57" r="2.67"/><circle class="cls-2" cx="98" cy="319.38" r="2.67"/><circle class="cls-2" cx="187.5" cy="298.84" r="2.67"/><circle class="cls-2" cx="195.51" cy="260.08" r="2.67"/><circle class="cls-2" cx="185.94" cy="224.14" r="2.67"/><circle class="cls-2" cx="107.7" cy="199.56" r="2.67"/><circle class="cls-2" cx="60.47" cy="151.97" r="2.67"/><circle class="cls-2" cx="17.77" cy="174.69" r="2.67"/><circle class="cls-2" cx="123.02" cy="121.16" r="2.67"/><circle class="cls-2" cx="44.33" cy="25.78" r="2.67"/><circle class="cls-2" cx="160.55" cy="17.01" r="2.67"/><circle class="cls-2" cx="192.24" cy="32.48" r="2.67"/><circle class="cls-2" cx="242.81" cy="23.34" r="2.67"/><circle class="cls-2" cx="278.15" cy="7.86" r="2.67"/><circle class="cls-2" cx="227.5" cy="70.36" r="2.67"/><circle class="cls-2" cx="190.03" cy="107.3" r="2.67"/><circle class="cls-2" cx="478.02" cy="13.8" r="2.67"/><circle class="cls-2" cx="591.18" cy="25.24" r="2.67"/><circle class="cls-2" cx="676.56" cy="78.37" r="2.67"/><circle class="cls-2" cx="680.8" cy="107.99" r="2.67"/><circle class="cls-2" cx="687.13" cy="160.92" r="2.67"/><circle class="cls-2" cx="655.33" cy="199.29" r="2.67"/><circle class="cls-2" cx="664.75" cy="247.97" r="2.67"/><circle class="cls-2" cx="592.52" cy="261.46" r="2.67"/><circle class="cls-2" cx="550.24" cy="298.71" r="2.67"/><circle class="cls-2" cx="627.38" cy="350.33" r="2.67"/><circle class="cls-2" cx="481.12" cy="278.97" r="2.67"/><circle class="cls-2" cx="472.59" cy="328" r="2.67"/><circle class="cls-2" cx="359.61" cy="326.4" r="2.67"/><circle class="cls-2" cx="344.37" cy="374.15" r="2.67"/><circle class="cls-2" cx="307.48" cy="371.03" r="2.67"/><circle class="cls-2" cx="396.78" cy="399.65" r="2.67"/><circle class="cls-2" cx="517.91" cy="400.39" r="2.67"/><circle class="cls-2" cx="614.61" cy="412.18" r="2.67"/><circle class="cls-2" cx="585.54" cy="434.19" r="2.67"/><circle class="cls-2" cx="549.17" cy="452.79" r="2.67"/><circle class="cls-2" cx="436.55" cy="459.39" r="2.67"/><circle class="cls-2" cx="438.41" cy="406.82" r="2.67"/><circle class="cls-2" cx="322.5" cy="259.49" r="2.67"/><circle class="cls-2" cx="513.13" cy="487.57" r="2.67"/><circle class="cls-2" cx="492.29" cy="538.24" r="2.67"/><circle class="cls-2" cx="461.23" cy="570.91" r="2.67"/><circle class="cls-2" cx="400.08" cy="582.66" r="2.67"/><circle class="cls-2" cx="464.2" cy="614.25" r="2.67"/><circle class="cls-2" cx="513.13" cy="587.35" r="2.67"/><circle class="cls-2" cx="573.59" cy="509.64" r="2.67"/><circle class="cls-2" cx="591.52" cy="567.46" r="2.67"/><circle class="cls-2" cx="642.52" cy="487.72" r="2.67"/><circle class="cls-2" cx="689.09" cy="452.79" r="2.67"/><circle class="cls-2" cx="667.73" cy="536.33" r="2.67"/><circle class="cls-2" cx="622.69" cy="599.25" r="2.67"/><circle class="cls-2" cx="465.47" cy="669" r="2.67"/><circle class="cls-2" cx="542.22" cy="691.73" r="2.67"/><circle class="cls-2" cx="667.34" cy="659.53" r="2.67"/><circle class="cls-2" cx="639.12" cy="632.95" r="2.67"/><circle class="cls-2" cx="694" cy="320.28" r="2.67"/><circle class="cls-2" cx="554" cy="72.23" r="2.67"/><circle class="cls-2" cx="278.19" cy="100.4" r="2.67"/><circle class="cls-2" cx="328.3" cy="115.4" r="2.67"/><circle class="cls-2" cx="270.01" cy="167.77" r="2.67"/><circle class="cls-2" cx="323.49" cy="206.06" r="2.67"/><circle class="cls-2" cx="388.49" cy="215.41" r="2.67"/><circle class="cls-2" cx="417.56" cy="113.31" r="2.67"/><circle class="cls-2" cx="453.79" cy="56.57" r="2.67"/><circle class="cls-2" cx="345.28" cy="53.5" r="2.67"/><circle class="cls-2" cx="493.52" cy="149.77" r="2.67"/><circle class="cls-2" cx="496.54" cy="196.32" r="2.67"/><circle class="cls-2" cx="484.87" cy="222.23" r="2.67"/><circle class="cls-2" cx="563.33" cy="200.83" r="2.67"/><circle class="cls-2" cx="565.22" cy="222.74" r="2.67"/><circle class="cls-2" cx="524.73" cy="126.97" r="2.67"/><circle class="cls-2" cx="533.86" cy="168.89" r="2.67"/><circle class="cls-2" cx="589.88" cy="114.19" r="2.67"/><circle class="cls-2" cx="624.14" cy="197.84" r="2.67"/><circle class="cls-2" cx="603" cy="215.41" r="2.67"/><circle class="cls-2" cx="301.94" cy="226.89" r="2.67"/><circle class="cls-2" cx="223.97" cy="303.93" r="2.67"/><circle class="cls-2" cx="252.74" cy="316.94" r="2.67"/><circle class="cls-2" cx="279.07" cy="288.91" r="2.67"/><circle class="cls-2" cx="39.24" cy="434.24" r="2.67"/><circle class="cls-2" cx="166.88" cy="423.22" r="2.67"/><circle class="cls-2" cx="257.88" cy="397.43" r="2.67"/><circle class="cls-2" cx="252.88" cy="475.68" r="2.67"/><circle class="cls-2" cx="233.63" cy="496.21" r="2.67"/><circle class="cls-2" cx="289.69" cy="531.7" r="2.67"/><circle class="cls-2" cx="266.93" cy="556.05" r="2.67"/><circle class="cls-2" cx="330.1" cy="582.7" r="2.67"/><circle class="cls-2" cx="362.77" cy="683.19" r="2.67"/><circle class="cls-2" cx="362.77" cy="524.95" r="2.67"/><circle class="cls-2" cx="308.05" cy="462.93" r="2.67"/><circle class="cls-2" cx="207.64" cy="374.18" r="2.67"/><circle class="cls-2" cx="113.24" cy="689.98" r="2.67"/></g><g id="Camada_3" data-name="Camada 3"><path class="cls-3" d="M115,582a2,2,0,1,1-2-2A2,2,0,0,1,115,582Z"/><path class="cls-3" d="M115,599.71a2,2,0,1,1-2-2A2,2,0,0,1,115,599.71Z"/><path class="cls-3" d="M127.71,590.85A14.71,14.71,0,1,0,122,602.47a1.49,1.49,0,0,0,.73-1.27,1.48,1.48,0,0,0-2.51-1.05,11.77,11.77,0,1,1,4.52-9.27h0a2.95,2.95,0,0,1-5.89,0h0v0a5.9,5.9,0,1,0-1.48,3.9,5.89,5.89,0,0,0,10.3-3.87h0Zm-14.7,3a2.95,2.95,0,1,1,2.94-2.94h0v.21A2.92,2.92,0,0,1,113,593.83Z"/><path class="cls-3" d="M529.43,214a2,2,0,1,1-1.95-2A1.95,1.95,0,0,1,529.43,214Z"/><path class="cls-3" d="M529.43,231.55a1.95,1.95,0,1,1-1.95-2A2,2,0,0,1,529.43,231.55Z"/><path class="cls-3" d="M542.11,222.74a14.66,14.66,0,1,0-5.66,11.56,1.48,1.48,0,0,0,.72-1.27,1.46,1.46,0,0,0-1.46-1.46,1.48,1.48,0,0,0-1,.42,11.71,11.71,0,1,1,4.5-9.22h0a2.93,2.93,0,1,1-5.86,0h0v0a5.88,5.88,0,1,0-1.47,3.88,5.86,5.86,0,0,0,10.26-3.85h0Zm-14.64,3a2.93,2.93,0,1,1,2.93-2.93h0V223A2.92,2.92,0,0,1,527.47,225.7Z"/><path class="cls-3" d="M78.42,644a.56.56,0,0,0-.09-.17,4.71,4.71,0,0,0,1.11-3.06,4.8,4.8,0,1,0-8.36,3.2l-1.62,5.55a.48.48,0,0,0,.67.57l1.63-.78,1,1.49a.48.48,0,0,0,.39.21h.08a.46.46,0,0,0,.38-.35l1.11-4.1,1.1,4.1a.47.47,0,0,0,.38.35h.08a.48.48,0,0,0,.39-.21l1-1.48,1.63.77a.48.48,0,0,0,.67-.57Z"/><path class="cls-3" d="M74.65,643.15a2.4,2.4,0,1,0-2.4-2.39,2.4,2.4,0,0,0,2.4,2.39Z"/><path class="cls-3" d="M68.9,646.92H63.06a1.65,1.65,0,0,1-1.65-1.65V622.55a1.64,1.64,0,0,1,1.65-1.64H75.53l6,6v18.39a1.65,1.65,0,0,1-1.65,1.65"/><polyline class="cls-3" points="81.5 626.88 75.53 626.88 75.53 620.91"/><path class="cls-3" d="M71.08,644s3.57,3.55,7.25-.14"/><path class="cls-3" d="M687.69,143.47a12.75,12.75,0,0,1-3.34.44A12.95,12.95,0,1,1,697.29,131a12.8,12.8,0,0,1-.67,4.12"/><ellipse class="cls-3" cx="682.61" cy="131.37" rx="6.16" ry="7.22"/><path class="cls-3" d="M689,124.08l-.11,11.85s-.07,3,2.58,3.23c0,0,3.57,0,5.26-4.26"/><path class="cls-3" d="M480.88,408.5l-2.81-.53-1.39-2.41a.38.38,0,0,0-.32-.19c-.22,0-.22,0-1.07,1.47l-.65,1.13-2.8.53a.38.38,0,0,0-.31.37c0,.15,0,.15,2.05,2.27l-.35,2.72a.41.41,0,0,0,.11.32c.18.18.18.18,1.8-.54l1.22-.55,2.59,1.17a.45.45,0,0,0,.16,0,.35.35,0,0,0,.28-.13c.11-.13.11-.13-.25-3l1.94-2a.37.37,0,0,0-.2-.63Z"/><path class="cls-3" d="M486.74,397.59H484.2v-1.12a.39.39,0,0,0-.78,0v1.12h-4.23v-1.12a.39.39,0,0,0-.77,0v1.12h-4.24v-1.12a.39.39,0,0,0-.77,0v1.12h-4.24v-1.12a.38.38,0,0,0-.38-.38.39.39,0,0,0-.39.38v1.12H466a1.48,1.48,0,0,0-1.48,1.48v18.55A1.48,1.48,0,0,0,466,419.1h20.77a1.49,1.49,0,0,0,1.49-1.48V399.07a1.49,1.49,0,0,0-1.49-1.48Z"/><line class="cls-3" x1="464.49" y1="401.88" x2="488.15" y2="401.88"/><path class="cls-4" d="M413.71,68c0-.63,0-1,0-1.47s-.1-.84-.59-1.1a6.44,6.44,0,0,1-3.07-3.6,7.38,7.38,0,0,1,5.27-9.94,7.33,7.33,0,0,1,7.3,11.42,7.88,7.88,0,0,1-2.45,2.29,1,1,0,0,0-.37.64c-.05.56,0,1,0,1.73"/><line class="cls-3" x1="412.61" y1="69.93" x2="420.61" y2="69.93"/><line class="cls-3" x1="413.91" y1="71.34" x2="419.31" y2="71.34"/><line class="cls-3" x1="426.7" y1="58.76" x2="432.1" y2="58.76"/><line class="cls-3" x1="401.4" y1="58.76" x2="406.8" y2="58.76"/><line class="cls-3" x1="405.1" y1="47.82" x2="408.92" y2="51.64"/><line class="cls-3" x1="416.63" y1="43.39" x2="416.63" y2="48.79"/><line class="cls-3" x1="429.01" y1="47.79" x2="425.2" y2="51.61"/><line class="cls-3" x1="414.95" y1="72.74" x2="418.27" y2="72.74"/><circle class="cls-3" cx="416.75" cy="58.07" r="20.68"/><path class="cls-3" d="M537.71,558.06a3.27,3.27,0,1,0,4.56,4.68l0,0a3.27,3.27,0,0,0-4.59-4.65Z"/><path class="cls-3" d="M550.62,551.23A14.56,14.56,0,0,0,530,551l0,0a1.1,1.1,0,0,1-.15.16l-.17.18"/><path class="cls-3" d="M555.53,547.73a21.38,21.38,0,0,0-30.24-.39l0,0c-.06.08-.14.16-.21.24l-.26.26"/><path class="cls-3" d="M546,554.8a8.18,8.18,0,0,0-11.56-.14h0l-.09.09-.1.1"/><circle class="cls-3" cx="540.17" cy="553" r="20.68"/><path class="cls-3" d="M506.29,329a2.93,2.93,0,0,1-.83-.46h0l-.14-.14a2.63,2.63,0,0,1-.09-3.65l5.43-5.85a2.63,2.63,0,0,1,3.66-.17l.07.07a2.61,2.61,0,0,1,.1,3.66l-5.42,5.85A2.62,2.62,0,0,1,506.29,329Z"/><path class="cls-3" d="M518.22,319a8,8,0,0,1-5.41-7.26,8,8,0,0,1,13.39-6.16,8,8,0,0,1-5.11,13.84A8.19,8.19,0,0,1,518.22,319Z"/><path class="cls-3" d="M519,316.69h0a5.64,5.64,0,0,1-2-1.18,5.58,5.58,0,0,1,3.57-9.68,5.6,5.6,0,0,1,4,1.48,5.58,5.58,0,0,1-5.58,9.38Z"/><circle class="cls-3" cx="515.98" cy="316.59" r="20.68"/><path class="cls-3" d="M602,337.66l-5.35,4.68-2.93-3.06,4.62-5.22a6.73,6.73,0,0,0-9.28,6.25,6.89,6.89,0,0,0,.31,2l-6.75,6.74a5.78,5.78,0,0,0-1.57-.22,5.87,5.87,0,1,0,5.87,5.87,5.81,5.81,0,0,0-.21-1.52l6.63-6.63a6.74,6.74,0,0,0,8.66-8.92Z"/><line class="cls-3" x1="579.01" y1="338.78" x2="586.14" y2="345.61"/><path class="cls-3" d="M598.63,353.57l-6.2-6-5,5,6.72,6.1a3.48,3.48,0,1,0,4.48-5.05Z"/><rect class="cls-3" x="576.59" y="335.46" width="2.13" height="3.87" transform="translate(-69.38 507.29) rotate(-45)"/><circle class="cls-3" cx="580.79" cy="354.59" r="1.78"/><circle class="cls-3" cx="588.9" cy="347.08" r="20.68"/><path class="cls-3" d="M154.05,189.75a1.77,1.77,0,1,1-1.77-1.77A1.77,1.77,0,0,1,154.05,189.75Z"/><path class="cls-3" d="M157.59,183.85a1.77,1.77,0,1,1-1.77-1.77A1.77,1.77,0,0,1,157.59,183.85Z"/><path class="cls-3" d="M161.13,189.75a1.77,1.77,0,1,1-1.77-1.77A1.77,1.77,0,0,1,161.13,189.75Z"/><path class="cls-3" d="M167.09,182.22a1.78,1.78,0,1,1-1.77-1.77A1.77,1.77,0,0,1,167.09,182.22Z"/><path class="cls-3" d="M167,195.79H149.27a1.5,1.5,0,0,1-1.5-1.5V176.55"/><line class="cls-3" x1="153.16" y1="188.22" x2="154.8" y2="185.3"/><line class="cls-3" x1="156.82" y1="185.31" x2="158.88" y2="188.05"/><line class="cls-3" x1="160.55" y1="188.44" x2="164.3" y2="183.67"/><circle class="cls-3" cx="157.43" cy="186.17" r="16.96"/><path class="cls-3" d="M242.9,247.58h25.64a1,1,0,0,1,1,1V262a0,0,0,0,1,0,0H241.89a0,0,0,0,1,0,0V248.6A1,1,0,0,1,242.9,247.58Z"/><rect class="cls-3" x="244.2" y="249.54" width="23.04" height="10.54" rx="1.01"/><path class="cls-3" d="M241.89,262h27.67a0,0,0,0,1,0,0v2.13a1,1,0,0,1-1,1H242.9a1,1,0,0,1-1-1V262A0,0,0,0,1,241.89,262Z"/><path class="cls-3" d="M256.1,263.69a.38.38,0,1,1-.76,0,.38.38,0,1,1,.76,0Z"/><rect class="cls-3" x="251.31" y="265.17" width="8.82" height="3.3" rx="0.83"/><rect class="cls-3" x="247.9" y="268.47" width="15.64" height="1.51" rx="0.76"/><circle class="cls-3" cx="255.72" cy="258.78" r="20.68"/><path class="cls-3" d="M148.35,424.48l-12.13-7.61a.3.3,0,0,0-.46.27l.48,14.37a.29.29,0,0,0,.19.27.31.31,0,0,0,.32-.06l3.5-3.29,4.39,7.64a.31.31,0,0,0,.18.14l.08,0a.27.27,0,0,0,.15-.05l2.91-1.69a.29.29,0,0,0,.11-.41l-4.38-7.65,4.59-1.41a.3.3,0,0,0,.21-.25.31.31,0,0,0-.14-.29Z"/><circle class="cls-3" cx="142.12" cy="426.52" r="13.66"/><path class="cls-4" d="M276.64,46.21c0-.33,0-.51,0-.75s-.05-.43-.3-.56a3.3,3.3,0,0,1-1.56-1.83,3.75,3.75,0,0,1,2.68-5,3.72,3.72,0,0,1,3.71,5.8A3.92,3.92,0,0,1,279.93,45a.49.49,0,0,0-.19.33c0,.28,0,.52,0,.88"/><line class="cls-3" x1="276.05" y1="47.51" x2="280.11" y2="47.51"/><line class="cls-3" x1="276.71" y1="48.74" x2="279.45" y2="48.74"/><line class="cls-3" x1="283.24" y1="41.49" x2="285.98" y2="41.49"/><line class="cls-3" x1="270.38" y1="41.49" x2="273.12" y2="41.49"/><line class="cls-3" x1="272.26" y1="35.93" x2="274.2" y2="37.88"/><line class="cls-3" x1="278.12" y1="33.68" x2="278.12" y2="36.43"/><line class="cls-3" x1="284.42" y1="35.92" x2="282.48" y2="37.86"/><line class="cls-3" x1="277.16" y1="50.03" x2="278.85" y2="50.03"/><path class="cls-3" d="M291.55,64.8A4.31,4.31,0,0,0,289,60.88a3,3,0,1,0-3.5,0A4.31,4.31,0,0,0,283,64.8"/><path class="cls-3" d="M273.74,51.77l-2.39,2.46"/><path class="cls-3" d="M284.93,54.16l-2.32-2.39"/><path class="cls-3" d="M278,53.79v-2"/><path class="cls-3" d="M282.46,64.8a4.3,4.3,0,0,0-2.54-3.92,3,3,0,1,0-3.49,0,4.3,4.3,0,0,0-2.55,3.92"/><path class="cls-3" d="M273.38,64.8a4.3,4.3,0,0,0-2.55-3.92,3,3,0,0,0-1.74-5.45,3,3,0,0,0-1.75,5.45,4.3,4.3,0,0,0-2.54,3.92"/><circle class="cls-3" cx="278.17" cy="52.24" r="20.68"/><path class="cls-3" d="M546.31,404.93a3.55,3.55,0,0,1-1.15-2.39,3.29,3.29,0,0,1,1.15-2.3,2.25,2.25,0,0,0,.84-1.6,2.65,2.65,0,0,0-.84-1.7"/><path class="cls-3" d="M551.8,404.93a3.55,3.55,0,0,1-1.15-2.39,3.29,3.29,0,0,1,1.15-2.3,2.32,2.32,0,0,0,.85-1.6,2.62,2.62,0,0,0-.85-1.7"/><path class="cls-3" d="M541.31,404.93a3.55,3.55,0,0,1-1.15-2.39,3.29,3.29,0,0,1,1.15-2.3,2.32,2.32,0,0,0,.85-1.6,2.62,2.62,0,0,0-.85-1.7"/><path class="cls-3" d="M546.66,422.06c-10.89,0-12.44-7-12.49-14a1,1,0,0,1,1-1h23a1,1,0,0,1,1,1C559.09,415,557.54,422.06,546.66,422.06Z"/><path class="cls-3" d="M559.14,409.18c-.1,2.6-.4,5.59-1.9,8a5.2,5.2,0,0,0,3.4-5.14A3,3,0,0,0,559.14,409.18Z"/><path class="cls-3" d="M543.66,419.57h-.1c-3.95-.7-6.09-2.95-6.89-7.39"/><circle class="cls-3" cx="547.4" cy="409.5" r="20.68"/><path class="cls-3" d="M543.13,138.14l-3,3-1-1-7.61,7.61a4.39,4.39,0,0,0,6.22,6.21l7.61-7.6-1-1,3-3Z"/><line class="cls-3" x1="542.12" y1="141.97" x2="543.46" y2="140.63"/><line class="cls-3" x1="540.08" y1="141.09" x2="544.29" y2="145.3"/><line class="cls-3" x1="543.53" y1="143.38" x2="544.87" y2="142.04"/><circle class="cls-3" cx="538.72" cy="146.68" r="14.25"/><path class="cls-3" d="M413.61,363.66a9.16,9.16,0,0,0-3.19-2.37,6.4,6.4,0,1,0-7.42,0,9.13,9.13,0,0,0-5.41,8.33"/><circle class="cls-3" cx="415.83" cy="369.62" r="5.08"/><line class="cls-3" x1="415.83" y1="371.99" x2="415.83" y2="367.25"/><line class="cls-3" x1="418.2" y1="369.62" x2="413.47" y2="369.62"/><circle class="cls-3" cx="407.48" cy="362.37" r="20.68"/><line class="cls-3" x1="164.58" y1="46.47" x2="156.06" y2="41.25"/><line class="cls-3" x1="156.11" y1="56.75" x2="164.55" y2="51.16"/><circle class="cls-3" cx="168.38" cy="48.85" r="4.42"/><circle class="cls-3" cx="152.05" cy="39.35" r="4.42"/><circle class="cls-3" cx="152.32" cy="59.02" r="4.42"/><circle class="cls-3" cx="158.22" cy="49.19" r="20.68"/><line class="cls-3" x1="603.52" y1="463.16" x2="609.61" y2="469.59"/><path class="cls-4" d="M602.79,470.72h.09l6.65-1.11.08,0,0,0a.44.44,0,0,0,.15-.1h0L625.18,454a.53.53,0,0,0,0-.74l-5.56-5.59a.52.52,0,0,0-.73,0l-15.36,15.46s0,0,0,0a.4.4,0,0,0-.1.15s0,0,0,0l0,.08-1.1,6.69a.54.54,0,0,0,.15.45.51.51,0,0,0,.36.15Z"/><line class="cls-3" x1="601.8" y1="472.8" x2="627.55" y2="472.8"/><circle class="cls-3" cx="614.68" cy="460.17" r="20.68"/><path class="cls-3" d="M429.37,288.6v-26l8.26,3.91a1.09,1.09,0,0,1,.63,1V291a1.08,1.08,0,0,1-1.52,1Z"/><path class="cls-3" d="M429.37,262.58H442a1.55,1.55,0,0,1,1.56,1.55V271"/><path class="cls-3" d="M443.56,282.29v4.91a1.56,1.56,0,0,1-1.56,1.56h-3.59"/><line class="cls-3" x1="441.03" y1="276.26" x2="449.4" y2="276.26"/><line class="cls-3" x1="446.72" y1="273.57" x2="449.4" y2="276.26"/><line class="cls-3" x1="446.72" y1="279.03" x2="449.4" y2="276.34"/><circle class="cls-3" cx="439.39" cy="277.32" r="20.68"/><path class="cls-3" d="M319.06,153.66V143a1,1,0,0,1,1.05-1H334a1,1,0,0,1,1,1v4.87"/><path class="cls-3" d="M335.07,159.79v9.66a1,1,0,0,1-1,1H320.11a1,1,0,0,1-1.05-1v-4"/><line class="cls-3" x1="319.06" y1="145.7" x2="335.07" y2="145.7"/><line class="cls-3" x1="335.07" y1="166.78" x2="319.06" y2="166.78"/><line class="cls-3" x1="328.87" y1="168.43" x2="325.26" y2="168.43"/><circle class="cls-1" cx="332.26" cy="143.54" r="0.42"/><line class="cls-3" x1="324.76" y1="144.12" x2="329.38" y2="144.12"/><circle class="cls-3" cx="333.77" cy="153.86" r="5.48"/><path class="cls-3" d="M337.38,158a3.58,3.58,0,0,0-2.11-3.26,2.5,2.5,0,1,0-4-2,2.49,2.49,0,0,0,1.05,2,3.57,3.57,0,0,0-2.12,3.26"/><circle class="cls-3" cx="319.88" cy="159.62" r="5.48"/><path class="cls-3" d="M323.49,163.8a3.58,3.58,0,0,0-2.11-3.26,2.5,2.5,0,1,0-4-2,2.48,2.48,0,0,0,1.05,2,3.57,3.57,0,0,0-2.12,3.26"/><path class="cls-3" d="M333.2,160a7.47,7.47,0,0,1-6,3.07,7.36,7.36,0,0,1-2.22-.33"/><path class="cls-3" d="M320.17,153a7.49,7.49,0,0,1,9.66-4.33"/><circle class="cls-3" cx="326.83" cy="156.24" r="20.68"/><rect class="cls-3" x="613.61" y="146.37" width="5.12" height="12.71"/><rect class="cls-3" x="618.73" y="152.76" width="5.12" height="6.33"/><rect class="cls-3" x="623.84" y="137.35" width="5.12" height="21.73"/><rect class="cls-3" x="628.96" y="148.63" width="5.12" height="10.46"/><rect class="cls-3" x="634.08" y="141.96" width="5.12" height="17.13"/><line class="cls-3" x1="639.19" y1="161.78" x2="613.51" y2="161.78"/><circle class="cls-3" cx="626.35" cy="150.57" r="20.68"/><path class="cls-3" d="M677.61,359.75v-1.23a.85.85,0,0,0-.85-.85h-8.25a.39.39,0,0,0-.27.11L665,361a.39.39,0,0,0-.12.28V373a.85.85,0,0,0,.85.85h11a.85.85,0,0,0,.85-.85v-6"/><path class="cls-3" d="M670.06,370.93l2.44-.57a.59.59,0,0,0,.17-.1l7.55-7.56a1.3,1.3,0,0,0,0-1.86l-.46-.46a1.3,1.3,0,0,0-1.86,0L674.26,364l-.78.78-2.35,2.34-.78.78h0a.59.59,0,0,0-.1.17l-.6,2.27a3,3,0,0,0-.13.65C669.56,371.08,670.05,370.94,670.06,370.93Z"/><line class="cls-3" x1="674.79" y1="363.52" x2="667.75" y2="363.52"/><line class="cls-3" x1="671.37" y1="366.87" x2="667.75" y2="366.87"/><line class="cls-3" x1="669.67" y1="370.99" x2="667.75" y2="370.99"/><circle class="cls-3" cx="672.75" cy="365.75" r="13.43"/><path class="cls-3" d="M459.3,184.4a.31.31,0,0,0-.32,0l-19.06,9.53a.3.3,0,0,0-.17.26.3.3,0,0,0,.15.28l6.66,4v4.82a.31.31,0,0,0,.2.29l.11,0a.31.31,0,0,0,.23-.11l2.69-3.14,5.54,3.21a.33.33,0,0,0,.29,0,.3.3,0,0,0,.17-.22l3.63-18.61a.3.3,0,0,0-.12-.3Z"/><line class="cls-3" x1="446.56" y1="198.43" x2="449.79" y2="200.31"/><line class="cls-3" x1="446.08" y1="198.15" x2="459.3" y2="184.4"/><circle class="cls-3" cx="451.47" cy="193.72" r="15.55"/><circle class="cls-3" cx="70.58" cy="634.64" r="20.68"/><path class="cls-3" d="M246.31,145.86l-4.18-2.66a1.47,1.47,0,0,1-.52-2l6.08-9.6a1.48,1.48,0,0,1,2.05-.39l6,3.82a1.49,1.49,0,0,1,.52,2l-2.08,3.27"/><path class="cls-3" d="M246,141.13l4.18,2.65a1.48,1.48,0,0,1,.52,2l-6.08,9.6a1.49,1.49,0,0,1-2.06.39l-6-3.82a1.47,1.47,0,0,1-.52-2l2.07-3.28"/><circle class="cls-3" cx="246.17" cy="143.49" r="17.92"/><path class="cls-3" d="M395.31,541.21h-8.94a.87.87,0,0,1-.87-.88v-11.7a.88.88,0,0,1,.87-.88h22.22a.88.88,0,0,1,.88.88v11.7a.87.87,0,0,1-.88.88H395.31Z"/><line class="cls-3" x1="388.73" y1="541.21" x2="388.73" y2="527.75"/><line class="cls-3" x1="406.23" y1="527.75" x2="406.23" y2="541.21"/><line class="cls-3" x1="407.62" y1="532.96" x2="407.62" y2="536"/><circle class="cls-1" cx="386.67" cy="529.98" r="0.21"/><line class="cls-3" x1="387.4" y1="536.42" x2="387.4" y2="532.54"/><path class="cls-3" d="M401.21,527.64V515.29a.87.87,0,0,1,.87-.87h11.71a.88.88,0,0,1,.88.87v22.22a.89.89,0,0,1-.88.88h-4.3"/><line class="cls-3" x1="401.21" y1="517.65" x2="414.67" y2="517.65"/><line class="cls-3" x1="414.67" y1="535.15" x2="409.47" y2="535.15"/><circle class="cls-1" cx="412.23" cy="515.54" r="0.27"/><line class="cls-3" x1="405.99" y1="516.32" x2="409.88" y2="516.32"/><path class="cls-3" d="M389.63,523.92a12.25,12.25,0,0,1,7.26-7.53"/><polyline class="cls-1" points="391.31 523.86 389.28 524.97 388.17 522.95"/><polyline class="cls-1" points="395.8 515.02 397.89 516.01 396.89 518.1"/><circle class="cls-3" cx="400.08" cy="527.81" r="22.53"/><polyline class="cls-3" points="27.27 404.94 32.67 399.34 38.3 403.78 45.62 395.27 52.24 401.52"/><rect class="cls-3" x="27.23" y="388.46" width="25.01" height="22.14"/><circle class="cls-3" cx="37.3" cy="394.58" r="2.44"/><circle class="cls-3" cx="39.74" cy="399.52" r="20.68"/><circle class="cls-3" cx="476.36" cy="407.6" r="20.68"/><path class="cls-3" d="M644.57,14a1.05,1.05,0,0,0-1-.15,3.1,3.1,0,0,0-1.89,1.52,1.09,1.09,0,0,1-1.16.69,3.73,3.73,0,0,0-3.28,1.87,10,10,0,0,0-1.44,3.58,19.74,19.74,0,0,0-.5,3.89c0,.6,0,1.18,0,1.77,0,.37,0,.75,0,1.26V31a.75.75,0,0,0,.75.74h12a.74.74,0,0,0,.74-.74V29.16a2.57,2.57,0,0,0-.72-2c-.61-.61-1.27-1.19-1.27-1.19v0a3.77,3.77,0,0,1-.71-.73l-.57-.74a4.28,4.28,0,0,0,.59-.1,1.07,1.07,0,0,1,.82.11c.26.18.56.33.85.49a2.27,2.27,0,0,0,2.78-.56l.83-1a1.68,1.68,0,0,0,.4-1.28,1.74,1.74,0,0,0-.65-1.18c-1-.8-2-1.61-3-2.41l-2.38-1.9a1.62,1.62,0,0,1-.72-1.71A1,1,0,0,0,644.57,14Z"/><path class="cls-3" d="M633.85,37.4a.73.73,0,0,0,.63.35h15a.75.75,0,0,0,.64-.35.73.73,0,0,0,0-.73l-1.49-3a.75.75,0,0,0-.67-.42H636a.76.76,0,0,0-.67.41l-1.5,3A.76.76,0,0,0,633.85,37.4Z"/><circle class="cls-3" cx="642.72" cy="25.78" r="17.79"/><path class="cls-3" d="M463.1,506.24a7.12,7.12,0,0,0-7.11,7.11c0,5.83,6.32,11.43,6.59,11.67a.8.8,0,0,0,.52.19.78.78,0,0,0,.52-.19c.27-.24,6.6-5.84,6.6-11.67A7.12,7.12,0,0,0,463.1,506.24Z"/><circle class="cls-3" cx="463.1" cy="513.35" r="2.37"/><path class="cls-3" d="M456,518.89h-1.58a.79.79,0,0,0-.75.54l-3.17,9.49a.79.79,0,0,0,.11.71.81.81,0,0,0,.64.33H475a.8.8,0,0,0,.75-1.05l-3.16-9.48a.8.8,0,0,0-.75-.54h-1.58"/><circle class="cls-3" cx="463.1" cy="518.1" r="20.68"/><path class="cls-3" d="M536.51,661.91a2.63,2.63,0,0,0-2.92-1.87l-.84-2.89a.91.91,0,0,0-.66-.64.93.93,0,0,0-.89.25,21.5,21.5,0,0,1-7.88,5.09l-2.79.83a1.42,1.42,0,0,0-1,1.59l-.57.16a1.17,1.17,0,0,0-.8,1.45l.72,2.48a1.18,1.18,0,0,0,1.46.8l.56-.16a1.45,1.45,0,0,0,1.12.85l3.63,5a.94.94,0,0,0,1,.34l2-.59a.94.94,0,0,0,.61-.59.91.91,0,0,0-.13-.84L526,668.88a21.46,21.46,0,0,1,8.74.22.93.93,0,0,0,.47,0,.91.91,0,0,0,.42-.25.93.93,0,0,0,.21-.89L535,665A2.61,2.61,0,0,0,536.51,661.91Z"/><line class="cls-3" x1="540.61" y1="661.35" x2="538.23" y2="662.04"/><line class="cls-3" x1="535.97" y1="659.53" x2="537.16" y2="657.36"/><line class="cls-3" x1="539.53" y1="665.51" x2="537.36" y2="664.31"/><polyline class="cls-3" points="523.82 661.66 526.01 668.9 522.02 669.85"/><line class="cls-3" x1="519.53" y1="664.27" x2="520.9" y2="669"/><line class="cls-3" x1="533.59" y1="660.04" x2="535.04" y2="665.04"/><circle class="cls-3" cx="529.36" cy="665.85" r="15.71"/><path class="cls-3" d="M91.55,173.45a17.39,17.39,0,1,1,17.38-17.39A17.41,17.41,0,0,1,91.55,173.45Z"/><path class="cls-3" d="M87.08,166.37h0a2.46,2.46,0,0,1-2.42-2.65c-.08-3,0-8.42,0-12.38l0-2.83a3.09,3.09,0,0,1,2.78-2.76h.45l.51.23c3,1.62,6.94,4.08,10.11,6.06l2.76,1.72a2.83,2.83,0,0,1,1.15,2.45,2.27,2.27,0,0,1-1.08,2c-3.2,1.83-12.73,7.69-12.83,7.75A2.91,2.91,0,0,1,87.08,166.37Z"/><path class="cls-4" d="M154.79,340.63a2.85,2.85,0,0,1-2.69,3H136.53a2.85,2.85,0,0,1-2.69-3v-17.2a2.84,2.84,0,0,1,2.69-3H152.1a2.84,2.84,0,0,1,2.69,3Z"/><line class="cls-3" x1="136.97" y1="324.5" x2="150.61" y2="324.5"/><line class="cls-3" x1="136.97" y1="327.81" x2="150.61" y2="327.81"/><line class="cls-3" x1="136.97" y1="331.11" x2="146.18" y2="331.11"/><line class="cls-3" x1="136.97" y1="334.41" x2="146.18" y2="334.41"/><line class="cls-3" x1="136.97" y1="337.72" x2="142.63" y2="337.72"/><path class="cls-4" d="M133.75,340.67h-1.6a2.84,2.84,0,0,1-2.69-3V320.5a2.85,2.85,0,0,1,2.69-3h15.57a2.85,2.85,0,0,1,2.69,3"/><circle class="cls-3" cx="142.12" cy="330.57" r="20.68"/><path class="cls-3" d="M62.3,87.45l0-8.35a1.11,1.11,0,0,0-.06-.51"/><path class="cls-3" d="M62.29,88.65s-.18,0-.36.48a2.45,2.45,0,0,0-.24.92.58.58,0,0,0,.18.42.59.59,0,0,0,.85,0,.58.58,0,0,0,.18-.42,2.45,2.45,0,0,0-.24-.92C62.48,88.69,62.33,88.65,62.29,88.65Z"/><path class="cls-3" d="M59.23,79.14v7.42c0,1.54-.93,2.8-2.78,3.76S52,91.69,48.4,91.69s-6.3-.46-8-1.37-2.77-2.22-2.77-3.76V79.41l10.83,1.81Z"/><path class="cls-3" d="M48.41,81.22,37.58,79.41l-2.2-.51a3.24,3.24,0,0,1-1.8-1.14,3.24,3.24,0,0,1,0-4.07,3.31,3.31,0,0,1,1.8-1.15l12.28-2.81a4,4,0,0,1,1.46,0l12.3,2.81a3.3,3.3,0,0,1,1.81,1.15,3.24,3.24,0,0,1,0,4.07,3.3,3.3,0,0,1-.92.79Z"/><circle class="cls-3" cx="48.4" cy="80.67" r="20.68"/><path class="cls-3" d="M136.05,521.6l-1.71-1.71a1.14,1.14,0,0,0-1.59,0,1.13,1.13,0,0,0,0,1.58l3.62,3.63a1.12,1.12,0,0,0,.79.32,1.09,1.09,0,0,0,.79-.32l3.62-3.63a1.11,1.11,0,0,0,0-1.58,1.13,1.13,0,0,0-1.58,0l-1.7,1.71v-10"/><path class="cls-3" d="M128.35,507a8.07,8.07,0,0,1,15.89-1.87"/><path class="cls-3" d="M140.14,516.22l4.67.07a5.59,5.59,0,1,0-4.41-9"/><path class="cls-3" d="M130.85,507a4.58,4.58,0,0,0-1.12-.13,4.65,4.65,0,1,0,0,9.3l6.84.08"/><circle class="cls-3" cx="137.74" cy="512.24" r="18.64"/><rect class="cls-3" x="487.56" y="59.44" width="28.22" height="17.81" rx="1.01"/><line class="cls-3" x1="497.21" y1="72.96" x2="493.52" y2="69.27"/><line class="cls-3" x1="497.21" y1="65.57" x2="493.52" y2="69.27"/><line class="cls-3" x1="506.12" y1="65.57" x2="509.81" y2="69.27"/><line class="cls-3" x1="506.12" y1="72.96" x2="509.81" y2="69.27"/><line class="cls-3" x1="504.29" y1="65.03" x2="499.04" y2="73.5"/><line class="cls-3" x1="515.78" y1="62.02" x2="487.56" y2="62.02"/><circle class="cls-3" cx="501.67" cy="68.34" r="20.68"/><path class="cls-3" d="M313.74,394.9a2.24,2.24,0,0,1,.25.17l1.72,1.23v13.17H294.34V396.3l1.75-1.25a2,2,0,0,1,.2-.14"/><path class="cls-3" d="M306.27,402.06l9.2-5.61s.2-.13.22-.11,0,.18,0,.18v13H294.35V396.56s0-.16,0-.2.14.05.14.05l9,5.61"/><path class="cls-3" d="M315.71,409.47s-.22-.18-.22-.18l-10.15-8a.58.58,0,0,0-.31-.12.6.6,0,0,0-.34.14l-10.1,7.92s-.28.2-.24.2h21.36Z"/><path class="cls-3" d="M296.84,397v-7.69A1.24,1.24,0,0,1,298,388h13.78a1.24,1.24,0,0,1,1.2,1.26v7.64"/><circle class="cls-3" cx="305.03" cy="398.75" r="17.09"/><path class="cls-3" d="M183.82,658.47v5.12h0c0,1.93,4.41,3.49,9.84,3.49s9.84-1.56,9.84-3.49h0v-5.12"/><line class="cls-3" x1="203.5" y1="666.49" x2="203.5" y2="663.59"/><path class="cls-3" d="M183.82,663.59v5.12h0c0,1.93,4.41,3.49,9.84,3.49q1.13,0,2.19-.09"/><path class="cls-3" d="M183.82,668.28v5.12h0c0,1.93,4.41,3.49,9.84,3.49a28.22,28.22,0,0,0,3-.16"/><path class="cls-3" d="M203.5,658.62c0,1.93-4.41,3.5-9.84,3.5s-9.84-1.57-9.84-3.5,4.41-3.49,9.84-3.49S203.5,656.69,203.5,658.62Z"/><circle class="cls-3" cx="202.69" cy="673.2" r="5.72"/><line class="cls-3" x1="202.69" y1="675.87" x2="202.69" y2="670.53"/><line class="cls-3" x1="205.36" y1="673.2" x2="200.02" y2="673.2"/><circle class="cls-3" cx="195.24" cy="667.88" r="18.85"/><path class="cls-3" d="M674.15,292.19l-1-3,1.08-6.84a9.42,9.42,0,0,0-5.31-10l.54-3.41a2.61,2.61,0,0,0-5.15-.81l-.54,3.41a9.41,9.41,0,0,0-8.11,7.86l-1.08,6.84-1.9,2.53a1.72,1.72,0,0,0,1.1,2.75l5.86.92a3.45,3.45,0,0,0,6.8,1.07l5.85.92a1.71,1.71,0,0,0,1.59-.6A1.69,1.69,0,0,0,674.15,292.19Z"/><path class="cls-3" d="M665.63,268.37a1.23,1.23,0,0,1,2.43.38l-.5,3.13a9.12,9.12,0,0,0-1.2-.27,10.24,10.24,0,0,0-1.22-.11Z"/><path class="cls-3" d="M662.71,294.85a2.07,2.07,0,0,1-1.74-2.17l4.06.64A2.06,2.06,0,0,1,662.71,294.85Z"/><path class="cls-3" d="M665.86,274.79a6.19,6.19,0,0,0-7.06,5.14"/><line class="cls-3" x1="654.54" y1="286.27" x2="673.11" y2="289.19"/><circle class="cls-3" cx="665.05" cy="282.47" r="20.68"/><path class="cls-3" d="M368.7,585.33a13.84,13.84,0,0,0,1.17-1.25.65.65,0,0,0-.92-.92,14.56,14.56,0,0,1-1.26,1.34,7.75,7.75,0,0,0-5.19-1.23,8.77,8.77,0,0,0-3.37,1c-.32-.41-.62-.84-.92-1.27a.66.66,0,0,0-.89-.23.66.66,0,0,0-.24.89q.46.66,1,1.32c-.14-.2-2.07,2.25-2.21,2.49-.41.7-1.77,3.38-.93,4,.36.28,1.08.08,1.52.08l2,0c1.4,0,2.79.08,4.19.12,2.74.09,5.49.16,8.24.14a.6.6,0,0,0,.6-.46.67.67,0,0,0,.08-.47,10.59,10.59,0,0,0-2.86-5.66Z"/><path class="cls-3" d="M370.88,592.57c-5.1,0-10.2-.05-15.3-.06a.6.6,0,0,0-.6.49.62.62,0,0,0-.15.38c-.25,3.25-.08,6.51-.22,9.76a.91.91,0,0,0,0,.17.53.53,0,0,0,0,.12,2.87,2.87,0,0,0,3.11,2.39c-.22,0,0,3.83,0,4.07a2.31,2.31,0,0,0,1.15,2.12,2.64,2.64,0,0,0,2.82-.91c1.18-1.37,1.07-3.43,1-5.11.33,0,.65,0,1,0-.22,0-.18,3.61-.1,4A2.59,2.59,0,0,0,367,612c1.52-.58,1.85-2,1.78-3.48,0-.83-.06-1.69-.15-2.51a2.77,2.77,0,0,0,1.43-.5,2.81,2.81,0,0,0,1-2.16.41.41,0,0,0,0-.11c.27-3.26.37-6.54.38-9.81a.64.64,0,0,0-.59-.87Z"/><path class="cls-3" d="M375.68,591.86a.81.81,0,0,0-.19-.18,2.19,2.19,0,0,0-1.3-.31.79.79,0,0,0-.22,0,1.79,1.79,0,0,0-1.93,1.51.86.86,0,0,0,0,.16.61.61,0,0,0-.07.28c0,2.52,0,5,.16,7.54v0s0,.06,0,.09a2.25,2.25,0,0,0,.83,1.77,2.34,2.34,0,0,0,1.79.28h.06l.2-.07a2.21,2.21,0,0,0,1.17-1.58s0-.09,0-.13v0c.25-3,.6-6.11-.35-9a.53.53,0,0,0-.16-.26Z"/><path class="cls-3" d="M351,591.82c-1.39.63-1.28,2.16-1.29,3.44,0,2,.05,3.92.2,5.88v0a.27.27,0,0,0,0,.09,2,2,0,0,0,4,.39.68.68,0,0,0,0-.14v0c.25-3,.6-6.11-.35-9-.38-1.16-1.76-1-2.62-.63Z"/><path class="cls-3" d="M359.49,587.25a.66.66,0,0,0,0,1.31.66.66,0,0,0,0-1.31Zm0,0"/><path class="cls-3" d="M366.92,587.2a.65.65,0,0,0,0,1.3.65.65,0,0,0,0-1.3Zm0,0"/><circle class="cls-3" cx="363.07" cy="597.44" r="17.92"/><path class="cls-3" d="M232.46,430.18h-13a1.76,1.76,0,0,0-1.76,1.76v7.15a1.76,1.76,0,0,0,1.76,1.77h.82L220,442a.33.33,0,0,0,.12.35.3.3,0,0,0,.22.08l.15,0,3.21-1.49h8.79a1.77,1.77,0,0,0,1.77-1.77v-7.15a1.77,1.77,0,0,0-1.77-1.76Z"/><path class="cls-3" d="M231.59,432.68H220.3m11.29,0"/><path class="cls-3" d="M231.59,434.61H220.3m11.29,0"/><path class="cls-3" d="M231.59,436.54H220.3m11.29,0"/><path class="cls-3" d="M231.59,438.47H220.3m11.29,0"/><path class="cls-3" d="M236.56,421.22h-5.87a1.77,1.77,0,0,0-1.77,1.77v4.19a1.77,1.77,0,0,0,1.77,1.77h1.5l2.81,1.3.15,0a.29.29,0,0,0,.18,0,.37.37,0,0,0,.17-.29v-1h1.05a1.77,1.77,0,0,0,1.77-1.77V423a1.77,1.77,0,0,0-1.77-1.77Z"/><path class="cls-3" d="M233.77,426.62s0-.38,0-.5a1,1,0,0,1,.4-.7h0a1.23,1.23,0,0,0,.59-1.06,1.25,1.25,0,0,0-1.24-1.24h0a1.25,1.25,0,0,0-1.25,1.24m1.25-1.24"/><path class="cls-3" d="M233.79,426.92a.28.28,0,0,0-.17.07.24.24,0,0,0,0,.32.28.28,0,0,0,.17.07.26.26,0,0,0,.16-.07.24.24,0,0,0,0-.32.26.26,0,0,0-.16-.07Zm0,0"/><circle class="cls-3" cx="228" cy="431.8" r="15.54"/><path class="cls-3" d="M304,337.87a1.6,1.6,0,0,0,1.6-1.59V318.51l-5.77-5.77H287.76a1.59,1.59,0,0,0-1.59,1.59v21.95a1.59,1.59,0,0,0,1.59,1.59H304Z"/><polyline class="cls-3" points="305.58 318.51 299.81 318.51 299.81 312.74"/><circle class="cls-3" cx="295.87" cy="325.96" r="19.18"/><path class="cls-3" d="M434.83,638.91l-9.33-6.84a.53.53,0,0,0-.61,0l-9.33,6.84"/><path class="cls-3" d="M417.52,640.36V649a.51.51,0,0,0,.51.51h5.12a.51.51,0,0,0,.51-.47v-5a1.54,1.54,0,1,1,3.07,0v5a.51.51,0,0,0,.51.48h5.12a.51.51,0,0,0,.51-.51v-8.66"/><circle class="cls-3" cx="425.2" cy="640.75" r="15.94"/><path class="cls-3" d="M213,540.52l-.72-.37a5.31,5.31,0,0,0-7.16,2.27l-4.89,9.43a5.3,5.3,0,0,0,2.27,7.16l2.35,1.23a5.32,5.32,0,0,0,7.17-2.27l4.89-9.43a5.32,5.32,0,0,0-2.27-7.17h0l-.85-.44Z"/><line class="cls-3" x1="211.92" y1="543.56" x2="216.78" y2="534.29"/><line class="cls-3" x1="215.13" y1="552.04" x2="203.36" y2="545.89"/><line class="cls-3" x1="209.03" y1="549.05" x2="209.92" y2="547.41"/><rect class="cls-3" x="209.55" y="543.26" width="2.7" height="4.53" transform="translate(274.88 -35.84) rotate(27.42)"/><circle class="cls-3" cx="210.28" cy="546.97" r="16.85"/><path class="cls-3" d="M50.09,495.53h-5.5V493.7a.38.38,0,0,0-.37-.37.37.37,0,0,0-.36.37v1.83h-7.7V493.7a.37.37,0,0,0-.74,0v1.83H29.56A1.47,1.47,0,0,0,28.09,497v18.33a1.47,1.47,0,0,0,1.47,1.46H50.09a1.46,1.46,0,0,0,1.46-1.46V497a1.46,1.46,0,0,0-1.46-1.47Z"/><rect class="cls-3" x="31.76" y="502.13" width="2.93" height="2.93"/><rect class="cls-3" x="38.36" y="502.13" width="2.93" height="2.93"/><rect class="cls-3" x="44.95" y="502.13" width="2.93" height="2.93"/><rect class="cls-3" x="31.76" y="506.53" width="2.93" height="2.93"/><rect class="cls-3" x="38.36" y="506.53" width="2.93" height="2.93"/><rect class="cls-3" x="31.76" y="510.93" width="2.93" height="2.93"/><rect class="cls-3" x="38.36" y="510.93" width="2.93" height="2.93"/><rect class="cls-3" x="44.95" y="506.53" width="2.93" height="2.93"/><line class="cls-3" x1="28.09" y1="500.44" x2="51.55" y2="500.46"/><polyline class="cls-3" points="45.18 512.21 46.46 513.86 48.33 510.82"/><circle class="cls-3" cx="39.82" cy="505.06" r="18.2"/><path class="cls-3" d="M256.73,594.76v4.43a.88.88,0,0,0,.52.8.8.8,0,0,0,.37.08.86.86,0,0,0,.57-.21l6-5.1h8.52a3.55,3.55,0,0,0,3.55-3.54V580.59a3.54,3.54,0,0,0-3.55-3.54H256.73a3.54,3.54,0,0,0-3.54,3.54v10.63A3.55,3.55,0,0,0,256.73,594.76Z"/><path class="cls-3" d="M261.91,599.35h8.53l5.95,5.1a.88.88,0,0,0,.58.21,1,1,0,0,0,.37-.08.89.89,0,0,0,.51-.81v-4.42a3.55,3.55,0,0,0,3.55-3.55V585.18a3.55,3.55,0,0,0-3.55-3.55"/><path class="cls-3" d="M271.6,582.36H257.81"/><path class="cls-3" d="M271.6,585.57H257.81"/><path class="cls-3" d="M266.93,588.79h-9.12"/><circle class="cls-3" cx="267.29" cy="590.85" r="20.68"/><circle class="cls-3" cx="14.84" cy="29.34" r="2.09"/><circle class="cls-3" cx="23.42" cy="27.93" r="1.94"/><polyline class="cls-3" points="16.93 29.39 16.93 19.13 25.36 18.08 25.36 27.93"/><line class="cls-3" x1="16.93" y1="22.03" x2="25.36" y2="20.92"/><circle class="cls-3" cx="19.06" cy="24.76" r="11.73"/><polyline class="cls-3" points="584.43 609.58 593.19 609.58 593.19 618.36"/><polyline class="cls-3" points="595.55 615.88 586.89 615.88 586.89 607.18"/><circle class="cls-3" cx="589.99" cy="612.77" r="9.53"/><path class="cls-3" d="M677.46,586.55a3.5,3.5,0,1,0-4.27-4.27L668.93,578l-3.85,3.85a3.5,3.5,0,1,1-4.31,4.31L656.92,590l4.27,4.28a3.5,3.5,0,1,0,4.19,4.18l4.69,4.69L674,599.3a3.51,3.51,0,1,1,4.12-4.11l4-4Z"/><circle class="cls-3" cx="669.5" cy="590.6" r="20.68"/><path class="cls-3" d="M213.42,356.42H201.14a.85.85,0,0,1-.85-.85V345.12a.85.85,0,0,1,.85-.85H206a.85.85,0,0,1,.85.85v.42a.85.85,0,0,0,.85.85h5.73a.85.85,0,0,1,.85.85v8.33A.85.85,0,0,1,213.42,356.42Z"/><path class="cls-3" d="M213.68,356.42H201.52a.85.85,0,0,1-.79-1.15l2.39-6.34a.84.84,0,0,1,.8-.55h12.15a.85.85,0,0,1,.8,1.15l-2.39,6.34A.87.87,0,0,1,213.68,356.42Z"/><circle class="cls-3" cx="208.61" cy="350.34" r="12.84"/><path class="cls-3" d="M358.14,197.9h-4.21a4,4,0,0,0-2.4,1L345,205.41a1.41,1.41,0,0,0,0,2l5,5a1.41,1.41,0,0,0,2,0l6.51-6.52a3.89,3.89,0,0,0,1-2.39V199.3a1.4,1.4,0,0,0-1.4-1.4Zm-1.87,4.67a1.4,1.4,0,1,1,1.4-1.4,1.4,1.4,0,0,1-1.4,1.4Zm0,0"/><circle class="cls-3" cx="352.65" cy="205.37" r="12.04"/><path class="cls-3" d="M66.42,233.32A4.46,4.46,0,0,0,69.25,232c2.73-2.79,2.64-9,2.64-9.26a.9.9,0,0,0-.9-.87h-4.5v-1.9a.45.45,0,0,0-.45-.45H52.42a.45.45,0,0,0-.45.45v1.9H47.46a.89.89,0,0,0-.89.87c0,.26-.08,6.47,2.64,9.26A4.46,4.46,0,0,0,52,233.32a7.1,7.1,0,0,0,5.39,5.89v5.64H55.17a.45.45,0,0,0-.37.19l-2,2.83a.44.44,0,0,0,0,.47.46.46,0,0,0,.39.24H65.27a.45.45,0,0,0,.44-.45.46.46,0,0,0-.11-.29L63.66,245a.44.44,0,0,0-.37-.19H61v-5.64a7.13,7.13,0,0,0,5.39-5.89Zm3.67-9.71c-.09,2-.57,5.5-2.12,7.09a2.68,2.68,0,0,1-1.48.8v-7.89Zm-21.72,0H52v7.89a2.59,2.59,0,0,1-1.47-.8c-1.57-1.59-2-5.1-2.13-7.09ZM55.51,227l2.57-.36,1.15-2.33,1.15,2.33,2.56.36-1.86,1.82.44,2.55-2.29-1.21-2.3,1.21.44-2.55Zm0,0"/><circle class="cls-3" cx="59.23" cy="234.03" r="20.68"/><path class="cls-3" d="M351.24,451.21l-.15,0-5.94-3.13-5.94,3.13a.31.31,0,0,1-.32,0,.32.32,0,0,1-.13-.3l1.14-6.61-4.81-4.69a.31.31,0,0,1,.18-.53l6.63-1,3-6a.33.33,0,0,1,.56,0l3,6,6.64,1a.31.31,0,0,1,.18.53l-4.81,4.69,1.14,6.61a.32.32,0,0,1-.13.3A.28.28,0,0,1,351.24,451.21Z"/><polyline class="cls-3" points="342.65 442.87 344.69 444.88 347.63 440.7"/><circle class="cls-3" cx="345.15" cy="441.55" r="15.49"/><path class="cls-3" d="M359.14,277.62v7.66a.45.45,0,0,0,.45.45h8a.45.45,0,0,0,.45-.45V274.2a.45.45,0,0,0-.45-.45h-5.18"/><line class="cls-3" x1="363.07" y1="276.46" x2="366.8" y2="276.46"/><line class="cls-3" x1="360.69" y1="278.42" x2="366.8" y2="278.42"/><line class="cls-3" x1="360.69" y1="280.37" x2="366.8" y2="280.37"/><line class="cls-3" x1="360.69" y1="282.33" x2="366.8" y2="282.33"/><path class="cls-3" d="M361.5,275.14l.38-.62c.07-.21.08-.37,0-.47s-.58-.12-1.09.14l-1.38-1.66c.22-.34.31-.63.19-.78s-1,0-1.66.61-1.1,1.27-.9,1.53.43.11.8-.06l.57.69.53.62m0,0h0l.29.36c-.34.44-.49.85-.32,1s.94,0,1.69-.52l1.17,1.32a.36.36,0,0,0,.38-.06.33.33,0,0,0,.09-.34l-1.17-1.32a3.84,3.84,0,0,0,.44-.48h0"/><circle class="cls-3" cx="363.07" cy="278.69" r="11.23"/><path class="cls-3" d="M293.82,325.3s-3.34-1-3.34,2,3.34,2,3.34,2"/><path class="cls-3" d="M297.52,325.41c-.45-.21-2.45-.75-2.45.79s2.37.71,2.37,2.38-2.44.89-2.71.62"/><path class="cls-3" d="M301.63,325.41c-.45-.21-2.45-.75-2.45.79s2.37.71,2.37,2.38-2.44.89-2.71.62"/></g></svg>